<svg xmlns="http://www.w3.org/2000/svg" id="_&#xB808;&#xC774;&#xC5B4;_1" data-name="&#xB808;&#xC774;&#xC5B4; 1" viewBox="0 0 350 102.5836087"><defs><style>      .cls-1 {        fill: #131b39;      }      .cls-1, .cls-2 {        stroke-width: 0px;      }      .cls-2 {        fill: #ea6162;      }    </style></defs><circle class="cls-2" cx="143.5887697" cy="14.7599604" r="6.7205955" transform="translate(106.0757529 154.1456296) rotate(-80.8058447)"></circle><path class="cls-1" d="M139.4515841,25.9737675h8.2743794c.7587064,0,1.3736934.5152527,1.3736934,1.1509865v48.3340174c0,.6356505-.6149871,1.1509865-1.3736934,1.1509865h-8.2743794c-.7586312,0-1.3737016-.515336-1.3737016-1.1509865V27.124754c0-.6357338.6150704-1.1509865,1.3737016-1.1509865Z"></path><path class="cls-1" d="M186.3737379,76.6097579h-9.3302892c-.7587145,0-1.3737849-.6149871-1.3737849-1.3737016v-22.9829857c0-4.2747475-1.5594225-6.1749501-4.7491731-6.1749501-3.8666446,0-6.308679,3.1211781-6.308679,8.5495784v20.6083574c0,.7587146-.6150618,1.3737016-1.3737849,1.3737016h-9.3302892c-.7586312,0-1.3737016-.6149871-1.3737016-1.3737016v-35.9255431c0-.7587146.6150704-1.373785,1.3737016-1.373785h9.3302892c.7587231,0,1.3737849.6150704,1.3737849,1.373785v4.7999986c1.3558711-4.273581,5.1562761-7.1238015,10.6508325-7.1238015,8.0077554,0,12.4847954,4.9527247,12.4847954,14.9268301v23.3225159c0,.7587146-.6149871,1.3737016-1.3737016,1.3737016Z"></path><path class="cls-1" d="M191.1818185,41.2767887v-8.6655602c0-.6835597.6150704-1.2376396,1.3737942-1.2376396h9.33028c.7586312,0,1.3737016.5540799,1.3737016,1.2376396v8.6655602h8.6666431c.7587244,0,1.3737016.5541633,1.3737016,1.2377229v5.6550315c0,.6835597-.6149772,1.2377229-1.3737016,1.2377229h-8.6666431v14.18228c0,3.9729614,1.424527,4.8897346,6.1051275,4.8897346h2.5615156c.7587244,0,1.3737016.5541633,1.3737016,1.2377229v5.5429657c0,.65998-.5626619,1.2065611-1.2943807,1.2368064-1.8159657.0749883-4.3822306.1129823-6.0318057.1129823-10.8567169,0-14.7919342-3.1180119-14.7919342-11.5534415v-15.6490504"></path><path class="cls-1" d="M216.7343279,41.4870058v-3.511617c0-7.6411372,4.1386755-11.0302734,14.4512276-11.0302734,2.0069358,0,7.5232388.0391605,9.2705486.2123834.7033066.0697391,1.2337235.6020724,1.2337235,1.2446385v5.4909738c0,.6890588-.6150704,1.247638-1.3737849,1.247638h-6.8233484c-3.5944373,0-4.7492565,1.1089098-4.7492565,3.758745v2.5875116h8.1933839c.7587145,0,1.3737849.5585792,1.3737849,1.247638v5.7003577c0,.6890588-.6150704,1.247638-1.3737849,1.247638h-8.1933839v25.6795636c0,.6889755-.6149871,1.2475547-1.3737016,1.2475547h-9.2616333c-.7587145,0-1.373775-.5585792-1.373775-1.2475547v-25.6795636"></path><path class="cls-1" d="M245.1241233,75.3496218V28.2052516c0-.6958911.6150704-1.2601361,1.3737849-1.2601361h9.2616333c.7587145,0,1.3737849.564245,1.3737849,1.2601361v47.1443703c0,.6959744-.6150704,1.2601361-1.3737849,1.2601361h-9.2616333c-.7587145,0-1.3737849-.5641617-1.3737849-1.2601361Z"></path><path class="cls-1" d="M329.1724646,38.9930629l5.8236716,24.522578,5.2336806-24.4921661c.1353955-.6338175.6953078-1.0867466,1.343373-1.0867466h7.0523126c.8990259,0,1.5556731.8492004,1.3296384,1.7193142l-9.3357183,35.9255431c-.157392.6054886-.7039731,1.0281724-1.3296252,1.0281724h-7.4008413c-.6381501,0-1.1923133-.4394312-1.3376239-1.0608339l-5.3853235-23.0248958-5.4375654,23.0277287c-.1463937.6199863-.6998904,1.0580011-1.3369574,1.0580011h-7.4018412c-.6262353,0-1.1733163-.4236004-1.3300418-1.0299221l-9.2855463-35.9255431c-.2247981-.8696972.4317657-1.7175645,1.3299584-1.7175645h7.0548955c.6479819,0,1.2078942.4529291,1.343373,1.0865799l5.2355137,24.4923328,5.7694301-24.5197451c.1459771-.6205695.6997238-1.0591675,1.3372199-1.0591675h5.3914767c.6364004,0,1.1894804.4371816,1.3365408,1.0563346Z"></path><path class="cls-2" d="M260.5677888,53.9916317h10.4456146c0-6.9093351,2.5266044-9.4321902,8.0769021-9.4455214v-10.8383867c-12.7746667.0289955-18.5225168,8.0261603-18.5225168,20.2839082Z"></path><path class="cls-1" d="M279.0903055,76.6070916v-10.8383867c-5.5502977-.0133312-8.0769021-2.5351032-8.0769021-9.4455214h-10.4456146c0,12.2577479,5.7478501,20.2549127,18.5225168,20.2839082Z"></path><path class="cls-1" d="M281.8745363,33.7077236c-.0230797,0-.0443264.0026662-.0674061.0026662v10.8383867c.0147477,0,.0265792-.0024996.0414102-.0024996,5.4981392,0,8.035492,2.5202722,8.035492,9.4480211h10.4455433c0-12.2800777-5.6981199-20.2865744-18.4550394-20.2865744Z"></path><path class="cls-2" d="M289.8840323,56.3258497c0,6.9287487-2.5373528,9.4480211-8.035492,9.4480211-.014831,0-.0266625-.0024996-.0414102-.0024996v10.8383867c.0230797,0,.0443264.0026662.0674061.0026662,12.7569194,0,18.4550394-8.0064967,18.4550394-20.2865744h-10.4455433Z"></path><path class="cls-2" d="M91.9950139,49.8047038c-.3266989,0-.5609955-.0748216-.6942246-.1393948-.2233817-1.5860017-1.7468932-2.7370716-3.7123355-2.7370716-2.099088,0-3.7408245,1.4096127-3.7408245,3.2053316v4.5094608c-.1160717.0536583-.3112911.1160652-.5799991.1160652-.2659584,0-.4611778-.0624069-.5754932-.1160652v-8.8131204c0-1.7979686-1.643576-3.2071646-3.7449137-3.2071646-2.096832,0-3.7381648,1.4091961-3.7381648,3.2071646v14.8887527c-.1156486.0562412-.3096182.1160652-.5782428.1160652-.268208,0-.463844-.059824-.5799092-.1160652v-10.5850931c0-1.7957189-1.6414097-3.2053316-3.7404977-3.2053316-2.0964218,0-3.7421641,1.4096127-3.7421641,3.2053316v6.8296809c-.1121491.0562412-.3073685.1183148-.5759932.1183148s-.463844-.0620736-.5781595-.1183148v-15.5153213c0-1.7965521-1.6453257-3.2057482-3.7422474-3.2057482-2.0995046,0-3.7404144,1.4091961-3.7404144,3.2057482v33.3755256c-.1160652.0558246-.3112846.1182315-.5777429.1182315-.2691245,0-.4625942-.0624069-.5782428-.1182315V30.380911c0-1.7978852-1.6413264-3.2053316-3.7404144-3.2053316s-3.7421641,1.4074464-3.7421641,3.2053316v30.8666683c-.1165651.0575743-.3095349.1200645-.5782428.1200645-.268208,0-.4620943-.0624902-.5777429-.1183148v-15.4194197c0-1.7979686-1.643576-3.2071646-3.7404144-3.2071646-2.0995046,0-3.7430806,1.4091961-3.7430806,3.2071646v3.8393157c-.1371452.0646565-.3693588.1354788-17.8487889.1354788v3.4141322h17.1831431c2.122751,0,3.7856573-1.4074464,3.7856573-3.2030819v-3.8499807c.1244805-.0579909.3306982-.1248138.6230691-.1248138.272624,0,.48984.0624069.6204029.1248138v15.4124207c0,1.7961355,1.6242457,3.2035819,3.6977544,3.2035819,2.0731811,0,3.6951715-1.4074464,3.6951715-3.2035819v-30.8600027c.1332291-.0619903.3504451-.1288132.6252354-.1288132s.4898458.0668229.6208195.1288132v44.4319615c0,1.7983018,1.6220852,3.2053316,3.6978377,3.2053316,2.0709258,0,3.6951715-1.4070298,3.6951715-3.2053316v-33.3627776c.1309795-.0650731.3481955-.1293131.6229858-.1293131s.48984.0642399.6230691.1293131v15.5052396c0,1.7973853,1.6241684,3.2048317,3.6973378,3.2048317,2.0731754,0,3.6973378-1.4074464,3.6973378-3.2048317v-6.8213489c.131069-.0624902.3460354-.1266468.6208195-.1266468.2752902,0,.4920063.0641566.6234857.1266468v10.5762611c0,1.7961355,1.6242457,3.2053316,3.6969212,3.2053316,2.073592,0,3.6955881-1.4091961,3.6955881-3.2053316v-14.8817538c.1305629-.0624069.3477789-.1248138.6208195-.1248138.2774566,0,.4938394.0624069.6252419.1265635v8.8022055c0,1.7961355,1.6220729,3.2053316,3.695165,3.2053316,2.0757584,0,3.7000041-1.4091961,3.7000041-3.2053316v-4.4984625c.1283966-.0624902.3456126-.1266468.6208195-.1266468.3052089,0,.5241679.0703223.6489817.1305629.2233817,1.5877515,1.7631406,2.7436539,3.7575784,2.7436539h8.1843853v-3.4141322h-8.1843853Z"></path><path class="cls-1" d="M109.6450839,68.380796l-.496339-2.2038217h-8.0594049c-1.4878504,0-2.698154,1.2912979-2.698154,2.8783828s1.2103036,2.8783828,2.698154,2.8783828h3.5772733c.0024996.0931521.0036661.1867208.0036661.2802895,0,7.052896-6.5764704,12.7905812-14.6603714,12.7905812-2.059011,0-4.0601977-.3731083-5.9483187-1.1086598-1.4158617-.5516636-2.7343988-1.3112114-3.9187198-2.2567301l-.2615424-.2083007c-.1436442-.114732-.2807061-.2237983-.406853-.3392802-.5574127-.5000051-1.2648853-.7348016-1.9902717-.6659791-.7375512.0719887-1.3982811.4503462-1.8612919,1.0654999-.9084411,1.2078943-.7453,3.0016135.3641097,3.9992073.2632921.2359631.5207518.4425974.7669633.6374835l.3791073.2986199h.0012498c.8063738.6265686,1.6639895,1.1940631,2.5601825,1.6944848-2.6423363,5.1627752-9.8921951,8.7087201-17.9882671,8.7087201-8.0899834,0-15.338182-3.5435286-17.9862674-8.7026377,1.34129-.7392176,2.5862618-1.6244957,3.7103358-2.6391702,1.1236631-1.0174241,1.2819716-2.7729826.3612824-3.9967077-.4625999-.6151537-1.123663-.9935111-1.860881-1.0654999-.7270473-.0688226-1.4324424.165974-1.9922714.6671456-1.3173771,1.1883973-2.8600522,2.1314164-4.5850322,2.8031445-1.8885323.7355515-3.8898077,1.1086598-5.9488187,1.1086598-8.0838177,0-14.6603714-5.7376852-14.6603714-12.7905812,0-.1838879.0049159-.3681924.0142478-.5516636.8926103.029662,1.8128828-.0134146,2.7404043-.123314,1.4711863-.1769723,2.5391025-1.5975833,2.3808772-3.1671709-.0801541-.7929592-.4686766-1.5220118-1.0663331-1.9992704-.5529134-.4413476-1.2380562-.6374835-1.9219491-.5549131-1.2522206.1497266-2.4218708.136312-3.9100496-.1223975-5.7416893-1.0000101-10.1819108-5.502472-11.3031519-11.3438909h7.3925093v6.4656546h4.9629779v-17.9615217h-4.9629779v5.7420178H3.176586c-.0870697,0-.1741394.0052492-.2599593.0141644-1.6054153-.1358121-2.9166267,1.2067278-2.9166267,2.8666346,0,4.81283,1.6501583,9.4756001,4.6469391,13.1306113,2.3364675,2.8478875,5.356828,4.9394768,8.7681273,6.0797983-.0479925.5163358-.0724053,1.0268393-.0724053,1.5252612,0,10.2266492,8.9996743,18.5469301,20.0619424,18.5469301,1.7660568,0,3.5166994-.2128,5.2144336-.6339008,3.3600573,7.4809123,12.5208731,12.4565501,23.0872188,12.4565501,10.5667623,0,19.728328-4.9760544,23.0896351-12.4561335,1.6953179.4206841,3.4458772.6334842,5.214017.6334842,11.0623514,0,20.0619496-8.3202809,20.0619496-18.5469301,0-1.2921311-.1435681-2.5821791-.4267737-3.8332333Z"></path><path class="cls-1" d="M43.2773133,16.1543046c-.8157056-.6310679-1.6744934-1.1981458-2.5630209-1.6929017,2.6472522-5.1615254,9.8979504-8.7075536,17.9899335-8.7075536,8.0891502,0,15.3377654,3.5431954,17.9858508,8.700638-1.3437896.7420505-2.5879282,1.6281618-3.70467,2.638337-1.1123259.9971772-1.2766335,2.7904799-.3677758,3.9955412.5142528.6863926,1.2843823,1.0797476,2.112336,1.0797476.6394832,0,1.2591362-.2416288,1.7444769-.6806435,1.3096283-1.1834814,2.8507204-2.1256673,4.5801996-2.8002283l.1903869-.0752382c1.8258808-.6838929,3.7619944-1.0305054,5.7579385-1.0305054,8.0863107,0,14.6652807,5.7363521,14.6652807,12.7876649,0,.1823048-.0049159.3666093-.015074.5520802-.9194464-.0313284-1.8250546.0146644-2.7392448.123314-1.471103.1769723-2.5394358,1.5971667-2.3812105,3.1660044.0797375.7932925.46826,1.5215118,1.0654999,1.9987705.5529134.4418475,1.2376396.6383167,1.9158667.5544965,1.3071287-.14931,2.4462837-.1322293,3.9149704.1240639l.0536583.0089986c5.7787619,1.0300888,10.3138019,5.7705967,11.3125696,11.7006684h-4.7234273v-5.7420178h-4.9629802v17.9615217h4.9629802v-6.4656546h6.7966787c.5166691,0,1.0109251-.1525595,1.4421909-.4438472,1.2115603-.295787,2.0996713-1.4626044,2.0996713-2.8051442,0-4.816996-1.6504916-9.4793495-4.6472724-13.1278617-2.3356343-2.8478042-5.3555782-4.9389769-8.7669608-6.0792984.0472426-.5073373.0712388-1.0183406.0712388-1.5260944,0-10.2266492-9.0008408-18.5465135-20.0644354-18.5465135-1.7652303,0-3.5138732.2128-5.2091078.6334842-3.3604739-7.4801624-12.5220395-12.4561335-23.0896351-12.4561335-10.5692619,0-19.7299944,4.9756378-23.0872188,12.4561335-1.6957292-.4206841-3.4463771-.6334842-5.2144336-.6334842-11.0635179,0-20.064442,8.3198643-20.064442,18.5465135,0,1.297047.144894,2.5875116.430016,3.8348164l.4995885,2.1998223h8.0505729c1.4890169,0,2.7005772-1.2912979,2.7005772-2.8783828s-1.2115603-2.8779662-2.7005772-2.8779662h-3.5736905c-.069989-2.9890321,1.0464195-5.8864952,3.1880009-8.2307116,2.8071438-3.0728523,6.9878227-4.8352431,11.4699543-4.8352431,2.0724255,0,4.073279.3717751,5.9479854,1.1057436,1.4145285.5520802,2.7334887,1.311628,3.9259687,2.2619793l.2083007.1639743c.1606415.1285632.313201.2497942.4511848.3767744.4877515.4373482,1.1065713.6781438,1.7420551.6781438.8299534,0,1.5992496-.3941883,2.1086699-1.0780812.9096076-1.2087275.7464665-3.0016135-.3601103-3.9935415-.2046346-.185471-.406853-.3515283-.602489-.5097535"></path></svg>